<svg xmlns="http://www.w3.org/2000/svg" xmlns:xlink="http://www.w3.org/1999/xlink" width="505" height="249.765" viewBox="0 0 505 249.765"><defs><linearGradient id="a" y1="0.5" x2="1" y2="0.5" gradientUnits="objectBoundingBox"><stop offset="0" stop-color="#ccdcf2"/><stop offset="1" stop-color="#ebf7f7"/></linearGradient></defs><g transform="translate(-116.702 -113.971)"><g transform="translate(116.702 113.971)"><path d="M161.468,363.612S74.654,255.6,142.816,189.39c101.454-98.545,170.5,41.5,209.583-16.455,64.648-95.875,276.14-71.27,211.432,47.951-33.949,62.548,79.635,53.2,33.331,142.85Z" transform="translate(-116.702 -113.971)" opacity="0.18" fill="url(#a)" style="isolation:isolate"/><g transform="translate(40.123 49.777)"><path d="M324.557,321.936l8.906-15.273.209-.365a4.214,4.214,0,0,0-1.136-5.5l-11.871-8.777a4.35,4.35,0,0,1-.539-.472,4.144,4.144,0,0,1-.812-4.482,73.663,73.663,0,0,0,5.839-28.532,4.586,4.586,0,0,1,.177-1.171,4.281,4.281,0,0,1,3.049-2.9l11.982-2.873a4.29,4.29,0,0,0,3.119-3.173,4.665,4.665,0,0,0,.073-1.48l-2.307-17.906a4.306,4.306,0,0,0-4.466-3.744L320.405,226a4.164,4.164,0,0,1-3.867-2.233c-1.109-2.051-2.288-4.057-3.595-6.028a73.451,73.451,0,0,0-8.131-10.177l-.011-.018a4.243,4.243,0,0,1-.784-4.779l7.124-15.045.35-.76a4.151,4.151,0,0,0-1.659-5.378l-15.608-9.111a4.344,4.344,0,0,0-5.657,1.165L278.8,186.848a4.2,4.2,0,0,1-4.7,1.51,73.906,73.906,0,0,0-22.519-3.475,4.223,4.223,0,0,1-4.084-3.243l-3.436-14.194a4.3,4.3,0,0,0-4.745-3.256L221.332,166.5a4.116,4.116,0,0,0-3.58,4.257l.812,19.25a4.313,4.313,0,0,1-2.222,3.959q-2.65,1.455-5.215,3.156a74.828,74.828,0,0,0-8.979,6.983,4.089,4.089,0,0,1-4.581.7L179.5,196.222a4.231,4.231,0,0,0-5.46,1.687l-9.151,15.661a4.254,4.254,0,0,0,.673,5.1,3.107,3.107,0,0,0,.463.4l14.653,10.849a4.184,4.184,0,0,1,1.626,4.346,2.257,2.257,0,0,1-.117.429,12.821,12.821,0,0,0-.392,1.265,73.493,73.493,0,0,0-3.2,15.4,4.082,4.082,0,0,1-3.177,3.615l-14.991,3.636a4.294,4.294,0,0,0-3.239,4.734l.507,3.984,1.806,13.894a4.235,4.235,0,0,0,4.384,3.7l16.132-.7a4.088,4.088,0,0,1,3.959,2.523,74.383,74.383,0,0,0,6.546,12.182,73.425,73.425,0,0,0,6.325,8.211l-1.5,3.154-6.126,12.952a4.093,4.093,0,0,0,.8,4.692,3.738,3.738,0,0,0,.864.658l15.7,9.2a4.264,4.264,0,0,0,5.517-1.147l6.662-9.039a4.221,4.221,0,0,1,4.949-1.4,74.147,74.147,0,0,0,22.74,5.361,4.086,4.086,0,0,1,3.753,3.16l4.339,17.941a4.071,4.071,0,0,0,4.468,3.064l18.173-2.359a4.119,4.119,0,0,0,3.616-4.28l-.851-20.027a4.2,4.2,0,0,1,2.477-4.028,71.306,71.306,0,0,0,9.876-5.519q2.59-1.717,4.988-3.61a4.249,4.249,0,0,1,4.407-.511l17.329,8.22A4.291,4.291,0,0,0,324.557,321.936Zm-37.517-81.568a45.518,45.518,0,0,1,4.538,14.795,26.02,26.02,0,0,1,.21,3.877c-.125,5.984-1.924,13.229-4.571,17.722-20.3,34.329-68.773,24.963-75.166-13.837-.1-.639-.194-1.277-.275-1.927-.78-6.062,1.141-15.4,4.19-20.683a49.305,49.305,0,0,1,5.306-7.486C240.54,210.686,274.315,215.61,287.041,240.368Z" transform="translate(-157.151 -164.153)" fill="#cbe2f5"/></g><g transform="translate(413.974 166.725)"><g transform="translate(43.316 32.35)"><path d="M587.353,328.379s-5.669-6.613-.35-10.814c0,0,3.885-2.353,7.054-2.161,0,0-4.49,7.528-3.036,8.277s4.4-8.749,4.4-8.749,8.842-.858,11.686.51c0,0-7.559,6.186-5.966,6.554s9.757-5.7,9.757-5.7,8.229,1.4,7.791,6.421-3.274,6.57-4.521,6.437-8.536-2.916-8.7-1.9,4.23,4.359,7.3,4.514c0,0-5.8,6.4-9.657,4.552s-4.185-4.773-6.589-5.871-4.455-1.1-3.463.024,5.343,2.208,6.717,4.64,2.608,4.071-1.382,3.471-10.474-3.519-10.758-6.862Z" transform="translate(-577.771 -314.666)" fill="#bbd3ee"/><g transform="translate(0 8.143)"><path d="M614.62,322.915s-22.351-.861-27.287,5.531a16.176,16.176,0,0,1-4.451,6.247l-.524,1.426s3.873-4.084,5.259-4.331C587.618,331.788,585.451,323.869,614.62,322.915Z" transform="translate(-577.751 -322.876)" fill="#bbd3ee"/><path d="M582.845,334.784a14.036,14.036,0,0,0-5.131,9.888l.871.077s1.533-6.555,4.3-9.118S582.845,334.784,582.845,334.784Z" transform="translate(-577.714 -322.968)" fill="#bbd3ee"/></g></g><g transform="translate(0 14.395)"><path d="M567.123,319.916s9.018-5.05,4.81-11.9c0,0-3.367-4.208-6.974-5.291,0,0,1.924,10.221,0,10.461s-1.322-11.542-1.322-11.542-9.5-4.57-13.226-4.209c0,0,5.892,9.98,3.969,9.74s-8.538-10.341-8.538-10.341-9.739-1.8-11.3,3.968.962,8.658,2.4,9.018,10.7.241,10.461,1.443-6.493,3.126-9.98,2.043c0,0,3.848,9.5,8.9,9.019s6.613-3.608,9.739-3.848,5.411.6,3.848,1.442-6.853.276-9.378,2.422-4.57,3.47.12,4.431,13.105.361,14.789-3.246Z" transform="translate(-534.046 -296.564)" fill="#bbd3ee"/><g transform="translate(4.942 6.038)"><path d="M539.028,302.651s25.25,8.176,28.135,17.314a19.183,19.183,0,0,0,2.405,8.778v1.8s-2.645-6.132-4.089-6.973C565.48,323.573,571.131,315.636,539.028,302.651Z" transform="translate(-539.028 -302.651)" fill="#bbd3ee"/><path d="M569.807,328.946a16.653,16.653,0,0,1,1.673,13.11l-1-.269s.972-7.927-1.064-11.915S569.807,328.946,569.807,328.946Z" transform="translate(-539.267 -302.854)" fill="#bbd3ee"/></g></g><g transform="translate(39.609)"><path d="M581.791,312.834s-11.886-6.657-6.339-15.691c0,0,4.438-5.547,9.192-6.973,0,0-2.535,13.472,0,13.789s1.744-15.215,1.744-15.215,12.521-6.023,17.434-5.547c0,0-7.766,13.155-5.23,12.838s11.253-13.63,11.253-13.63,12.837-2.378,14.9,5.229-1.269,11.412-3.17,11.887-14.106.317-13.789,1.9,8.558,4.12,13.155,2.694c0,0-5.072,12.521-11.729,11.887s-8.717-4.755-12.838-5.072-7.132.792-5.072,1.9,9.034.364,12.363,3.193,6.022,4.573-.159,5.841-17.276.475-19.5-4.279Z" transform="translate(-573.977 -282.052)" fill="#c8ddf3"/><g transform="translate(1.536 7.959)"><path d="M618.917,290.076s-33.284,10.777-37.088,22.823a25.282,25.282,0,0,1-3.169,11.57v2.378s3.487-8.083,5.388-9.192C584.048,317.655,576.6,307.194,618.917,290.076Z" transform="translate(-575.551 -290.076)" fill="#c8ddf3"/><path d="M578.635,324.737a21.951,21.951,0,0,0-2.207,17.282l1.32-.354s-1.282-10.451,1.4-15.707S578.635,324.737,578.635,324.737Z" transform="translate(-575.526 -290.344)" fill="#c8ddf3"/></g></g><path d="M581.261,362.725a23.285,23.285,0,0,0,23.286-23.284h-46.57A23.284,23.284,0,0,0,581.261,362.725Z" transform="translate(-534.239 -282.516)" fill="#c8ddf3"/><path d="M604.866,364.087H557.653a2.873,2.873,0,0,1,2.873-2.873h41.467a2.873,2.873,0,0,1,2.873,2.873Z" transform="translate(-534.236 -282.692)" fill="#c8ddf3"/><rect width="47.865" height="0.714" transform="translate(22.973 56.925)" fill="#8cb4df"/></g><g transform="translate(328.468 67.369)"><path d="M499.589,182.895a7.811,7.811,0,0,0-6.174-.661c-10.488-1.231-13.547,11-13.4,15.207s.622,8.728-4.061,14.2c-13.528,15.791,14.8,16.489,14.8,16.489.239-12.617,15.364-8.014,14.7-6.735C524.843,226.044,507.383,186.939,499.589,182.895Z" transform="translate(-448.041 -181.888)" fill="#06294e"/><path d="M458.938,235.9s-1.845-2.807-3.331-2.863-4.239-.825-4.018-.275,1.926.605,2.092.935-2.532.826-3.3.881-2.588,0-2.532.386,3.274,1.982,5.546,1.762a15.373,15.373,0,0,1,5.079.661Z" transform="translate(-447.844 -182.297)" fill="#fb9f68"/><path d="M485.691,236.666a27.668,27.668,0,0,1-2.821,4.265c-2.191,2.746-5.571,5.916-9.813,6.542a10.527,10.527,0,0,1-5.831-.946h-.006c-5.153-2.287-9.027-7.548-9.027-7.548a4.235,4.235,0,0,1,.578-4.157s10.4,2.34,11.4,1.845,6.771-17.147,8.147-19.24,6.068-3.179,6.068-3.179Z" transform="translate(-447.925 -182.149)" fill="#f9d4b1"/><path d="M482.946,241.1c-2.191,2.746-5.571,5.916-9.813,6.542a10.528,10.528,0,0,1-5.831-.946c.2.027,5.348.663,7.4-3.008,2.092-3.744,4.355-9.689,7.462-7.707C483.505,236.839,483.446,238.965,482.946,241.1Z" transform="translate(-448.001 -182.321)" fill="#f0bf99"/><path d="M524.956,350.062s3.175,2.9,2.555,4.956-3.485,3.431-3.871,5.948-1.936,3.888-3.33,3.888h-6.645s-1.027-1.771,1.452-2.3,3.412-3.491,3.257-6.235a48.338,48.338,0,0,1,.233-6.4l5.265-1.22Z" transform="translate(-448.374 -183.235)" fill="#122b50"/><path d="M497.813,351.313s1.142,12.274-.252,12.961l-17.838-.037s0-2.058,2.866-2.517,7.9-2.135,8.75-5.87S497.813,351.313,497.813,351.313Z" transform="translate(-448.101 -183.256)" fill="#122b50"/><path d="M510.531,262.056c-3.671-8.232-5.917-10.595-5.488-13.15.319-1.9-.972-35.455-.972-35.455-.435-.135-1.308-.256-1.785-.362a4.477,4.477,0,0,1-3.27-2.845,22.812,22.812,0,0,1-1.11-7.57l-.47.092-7.907,1.566s.18,2.488.185,4.832v.059a4.546,4.546,0,0,1-3.281,4.4c-1,.289-1.868.535-1.868.535a72.5,72.5,0,0,0-3.458,16.8c-.554,8.515,5.279,12.215-.044,29.229C475.628,277.563,512.558,266.6,510.531,262.056Z" transform="translate(-448.108 -182.056)" fill="#fb9f68"/><path d="M489.6,204.332s.181,2.488.185,4.832c4.424-.125,6.763-4.16,7.721-6.4Z" transform="translate(-448.181 -182.056)" fill="#e58047"/><path d="M488.084,206.438s10.467.173,10.475-6.347,1.363-10.889-5.32-11.275-7.985,2.1-8.517,4.276S485.361,206.225,488.084,206.438Z" transform="translate(-448.141 -181.943)" fill="#fb9f68"/><path d="M488.5,188.644s2.867,7.65,7.265,8.781,6.306-.048,6.306-.048A12.457,12.457,0,0,1,498,190.019S490.664,185,488.5,188.644Z" transform="translate(-448.172 -181.932)" fill="#06294e"/><path d="M489.175,189.271a6.494,6.494,0,0,0-3,2.345,10.543,10.543,0,0,0-1.415,5.985s-2.158-5.2.268-8.141C487.6,186.342,489.175,189.271,489.175,189.271Z" transform="translate(-448.135 -181.937)" fill="#06294e"/><path d="M490.377,202.5a2.63,2.63,0,0,1-2.167.882,1.922,1.922,0,0,1-1.613-1.064A7.027,7.027,0,0,1,490.377,202.5Z" transform="translate(-448.157 -182.051)" fill="#e6f0fa"/><path d="M511.531,228.381a71.027,71.027,0,0,1,0,8.244c-.177,2.981-3.192,6.974-3.62,7.961-1.074,2.478-2.284,2.881-2.284,2.881l-9.366,2.3-3.293.805-10.384-3.1s-4.73-13.2-2.831-20.634a57.141,57.141,0,0,1,4.8-12.592s8.474,8.3,19.508-.7Z" transform="translate(-448.098 -182.143)" fill="#f9d4b1"/><path d="M508.894,238.015a29.161,29.161,0,0,1-.878,6.744c-1.074,2.478-2.284,2.881-2.284,2.881l-9.366,2.3-4.068-1.2s13.579-2.057,12.075-13.74Z" transform="translate(-448.203 -182.317)" fill="#f0bf99"/><path d="M483.231,249.764s-5.143,16.007-5.473,21.457,9.831,77.421,10.24,79.932c.385,2.367,3.325,3.876,3.325,3.876a4.445,4.445,0,0,0,3.281.252,8.118,8.118,0,0,0,3.523-1.66s4-51.33,1.526-69.666a290.515,290.515,0,0,1-2.507-34.192Z" transform="translate(-448.085 -182.436)" fill="#36a1ac"/><path d="M505.078,249.282s7.844,10.526,8.576,17.641,1.147,32.108,2.705,39.044,7.283,20.285,7.283,41.919a4.317,4.317,0,0,1-2.432,1.9,20.046,20.046,0,0,1-2.14.592,3.363,3.363,0,0,1-3.76-1.785c-3.871-7.793-16.2-32.925-16.831-38.142-.446-3.692-4.34-28.126-12.831-42.464-2.038-3.442,1.252-17.131,1.252-17.131Z" transform="translate(-448.144 -182.432)" fill="#48bdd2"/><path d="M490.143,202.676s-.181.769-2.092.65c0,0-1.6-.1-1.556-.943A5.162,5.162,0,0,1,490.143,202.676Z" transform="translate(-448.156 -182.052)" fill="#fff"/><path d="M482.446,247.272a10.775,10.775,0,0,0,6.166,1.716c4.9.1,17.037-1.249,17.037-1.249a10.037,10.037,0,0,1,.518,3.1s-14.826,3.74-23.416.547A5.433,5.433,0,0,1,482.446,247.272Z" transform="translate(-448.121 -182.416)" fill="#122b50"/><g transform="translate(37.079 65.734)"><path d="M487.461,253.217a2.549,2.549,0,1,1,2.235-2.53A2.4,2.4,0,0,1,487.461,253.217Zm0-4.319a1.818,1.818,0,1,0,1.494,1.788A1.664,1.664,0,0,0,487.461,248.9Z" transform="translate(-485.225 -248.157)" fill="#fff"/></g><rect width="20.141" height="27.57" transform="matrix(0.754, -0.657, 0.657, 0.754, 40.195, 60.187)" fill="#a5322d"/><path d="M502.342,250.24s-5.566.651-5.549,1.972,1.388,4.035,2.074,4.156,4.53-3.67,4.53-3.67Z" transform="translate(-448.239 -182.44)" fill="#fb9f68"/><path d="M504.236,213.537s7.43.521,10.278,7.444,8.252,18.549,8.252,20.505-3.018,7.985-19.23,11.451c0,0-1.676-1.764-1.575-3.159,0,0,10.121-8.692,10.093-9.708-.052-1.921-1.659-4.459-10.544-13.346C499.093,224.307,504.236,213.537,504.236,213.537Z" transform="translate(-448.272 -182.143)" fill="#f9d4b1"/></g><g transform="translate(207.128 143.779)"><g transform="translate(22.446 50.65)"><path d="M349.027,364.115h-.076a.806.806,0,0,1-.805-.824l1.221-52.889,3.594-.42L349.895,363.3A.869.869,0,0,1,349.027,364.115Z" transform="translate(-348.145 -309.982)" fill="#a2c9eb"/></g><g transform="translate(1.5 50.65)"><path d="M327.91,364.115h-.076a.806.806,0,0,1-.805-.824l1.221-52.889,3.594-.42L328.778,363.3A.869.869,0,0,1,327.91,364.115Z" transform="translate(-327.028 -309.982)" fill="#82b2e0"/></g><g transform="translate(56.249 50.65)"><path d="M386.156,364.115h.076a.806.806,0,0,0,.805-.824l-1.22-52.889-3.595-.42,3.065,53.313A.87.87,0,0,0,386.156,364.115Z" transform="translate(-382.223 -309.982)" fill="#a2c9eb"/></g><path d="M325.516,306.709V270.467a11.547,11.547,0,0,1,11.547-11.547h26.111a11.547,11.547,0,0,1,11.547,11.547v37.628Z" transform="translate(-325.516 -258.92)" fill="#a2c9eb"/><path d="M0,0H53.884a0,0,0,0,1,0,0V5.722a0,0,0,0,1,0,0H5.722A5.722,5.722,0,0,1,0,0V0A0,0,0,0,1,0,0Z" transform="translate(0 47.789)" fill="#82b2e0"/><rect width="43.27" height="5.722" rx="2.861" transform="translate(19.22 47.789)" fill="#a2c9eb"/></g><g transform="translate(203.678 90.696)"><path d="M384.208,297.985a24.281,24.281,0,0,1-8.445,9.024H356.189S387.062,293.019,384.208,297.985Z" transform="translate(-322.313 -206.143)" fill="#122b50"/><path d="M369.277,348.646a1.809,1.809,0,0,0-.323,1.935l.006.01c.466,1.289,2.009,2.731,3.8,4.169.229.185.432.352.61.508.047.042.093.082.137.123s.071.065.106.1c1.67,1.54,1.042,1.894,4.043,5.018,3.422,3.561,5.778,3.625,6.449,3.3.567-.276-.585-2.164-1.862-4.287-.061-.1-.122-.206-.185-.309-.171-.283-.339-.569-.508-.853-1.5-2.554-1.112-3.752-.757-7.555.288-3.09,4.806-17.26,4.806-17.26l-6.559-1.13s-1.975,11.284-4.151,13.022c-1.164.926-2.466.937-3.585,1.625-.078.048-.157.1-.232.147A8.586,8.586,0,0,0,369.277,348.646Z" transform="translate(-322.415 -206.43)" fill="#fb9f68"/><path d="M369.277,348.765a1.809,1.809,0,0,0-.323,1.935l.006.01a13.94,13.94,0,0,0,3.806,4.156c.226.187.427.36.6.521.047.042.093.082.137.123s.071.065.106.1c1.67,1.54,1.042,1.894,4.043,5.018,3.422,3.561,5.778,3.624,6.449,3.3.567-.276-.585-2.164-1.862-4.287a14.594,14.594,0,0,1-6.1-4.5c-2.06-2.63-3.435-6.008-4.839-7.965-.078.048-.157.1-.232.147A8.587,8.587,0,0,0,369.277,348.765Z" transform="translate(-322.415 -206.549)" fill="#122b50"/><path d="M422.552,344.533c.4,2.025,3.29,1.687,6.514.9s2.458.149,7.047-.359,5.978-2.219,6.118-2.9c.125-.606-2.142-.819-4.574-1.1-.305-.035-.613-.072-.921-.11-2.746-.345-4.756-2.117-7.25-3.572-2.363-1.378-5.888-6.993-5.888-6.993l-6.292.5s3.3,5.016,4.579,7.2a7.6,7.6,0,0,1,.618,4.288A8.068,8.068,0,0,0,422.552,344.533Z" transform="translate(-322.807 -206.414)" fill="#fb9f68"/><path d="M429.108,345.519c3.225-.788,2.458.149,7.047-.359s5.978-2.219,6.118-2.9c.125-.606-2.142-.819-4.574-1.1l-.023.047a12.933,12.933,0,0,1-6.572,2.042c-3.113.075-6.41-.816-8.559-.782a8.068,8.068,0,0,0,.049,2.152C423,346.644,425.884,346.307,429.108,345.519Z" transform="translate(-322.849 -206.5)" fill="#122b50"/><path d="M398.107,304l-5.882,15.829L384.546,340.5a12.434,12.434,0,0,1-4.08-.373,17.661,17.661,0,0,1-3.946-1.92s2.132-22.191,6.11-34.931c1.02-3.269,2.162-5.915,3.423-7.4C392.22,288.583,398.107,304,398.107,304Z" transform="translate(-322.477 -206.119)" fill="#122b50"/><path d="M391.791,278.715c-3.854-1.243-14.845.353-25.887,2.515l-2.311-3.813-23.849-1.863s-7.87,17.452-3.562,28.572a4.032,4.032,0,0,0,4.037,2.717h.348s14.194-.008,18.8-.008c11.86,0,25.1-8.153,26.814-8.5,2.8-.56,3.925,5.047,6.728,10.934s26.353,26.073,26.353,26.073a20.739,20.739,0,0,0,5.114-.525,5.035,5.035,0,0,0,2.2-1.387S400.481,281.518,391.791,278.715Z" transform="translate(-322.141 -205.971)" fill="#0c387b"/><path d="M362.551,207.406c-3.055-1.6-7.7-1.821-8.459-1.922-9.037-1.215-14.476,11.917-14.8,15.9-.589,7.334-4.47,8.452-9.93,13.046-10.951,9.21-7.739,19.912-1.752,23.889,3.593,2.386,9.925,0,9.925,0,.089.063,17.318-9.631,25.81-14.307C376.081,242.2,370.337,211.494,362.551,207.406Z" transform="translate(-322.038 -205.404)" fill="#122b50"/><path d="M356.413,240.2c.038.024-4.178,1.464-7,.215-2.652-1.172-4.661-5.535-4.621-5.538,1.206-.056,2.53-1.11,3.55-8.031l.514.185,8.638,3.108s-.626,2.771-1.031,5.41C356.125,237.764,355.942,239.886,356.413,240.2Z" transform="translate(-322.221 -205.577)" fill="#fb9f68"/><path d="M357.53,230.14s-.626,2.771-1.031,5.41c-4.962-.893-6.908-5.836-7.607-8.518Z" transform="translate(-322.254 -205.579)" fill="#ea8349"/><path d="M358.809,232.769s-11.818-1.586-10.717-8.93.317-12.5,7.909-11.793,8.635,3.725,8.864,6.265S361.911,232.992,358.809,232.769Z" transform="translate(-322.247 -205.457)" fill="#fb9f68"/><path d="M364.406,214.28s-7.564,6.519-12.711,7.045S344.6,220.2,344.6,220.2a20.086,20.086,0,0,0,4.857-6.582,3.621,3.621,0,0,1,2.984-2.133C356.117,211.166,363.083,211.021,364.406,214.28Z" transform="translate(-322.22 -205.452)" fill="#122b50"/><path d="M359.8,213.7a18.642,18.642,0,0,1,3.328,4.262,14.3,14.3,0,0,1,.387,7.6s3.943-7.668,1.711-11.393C362.858,210.227,359.8,213.7,359.8,213.7Z" transform="translate(-322.342 -205.46)" fill="#122b50"/><path d="M366.282,257.671c-.357,23.921-.1,18.923-2.714,21.192-.631.547-2.4.873-4.736,1.027-7.335.487-20.229-.721-20.72-2.077-1.691-4.691-.5-6.148-1.908-13.329-.148-.764-.329-1.59-.544-2.491-1.176-4.932-2.322-6.61,1.854-14.534,3.786-7.178,7.72-13,8.074-12.793,9.99,5.931,10.8.946,10.8.946S366.457,246,366.282,257.671Z" transform="translate(-322.139 -205.641)" fill="#fff"/><path d="M392.225,319.907l-7.679,20.668a12.434,12.434,0,0,1-4.08-.373,17.66,17.66,0,0,1-3.946-1.92s2.132-22.191,6.11-34.931Z" transform="translate(-322.477 -206.195)" fill="#0c387b"/><path d="M356.561,235.619s10.279,1.743,11.486,6.169,8.311,30.446,8.311,30.446-5.226.938-7.641-1.476-8.4-22.4-8.4-22.4Z" transform="translate(-322.316 -205.648)" fill="#fff"/><path d="M358.845,280.052c-7.335.487-20.229-.721-20.72-2.077-1.691-4.691-.5-6.148-1.908-13.329l3.538-9.963s-.585,11.095,2.686,14.012,13.395,5.633,14.986,8.071A8.918,8.918,0,0,1,358.845,280.052Z" transform="translate(-322.152 -205.802)" fill="#e6eff9"/><path d="M350.556,275.545s7.237-1.611,8.4-.969,4.021,2.981,4.378,3.8-2.6-.618-3.561-.876a8.566,8.566,0,0,0-3.074.674,10.21,10.21,0,0,1-5.508.553Z" transform="translate(-322.268 -205.962)" fill="#fb9f68"/><path d="M345.479,234.662s-9.717.6-13.081,5.29c-4.734,6.6-14.128,34.75-8.745,38.5,6.063,4.227,27.592,1.106,27.592,1.106s.716-3.349-.281-4.969-17.2-4.238-17.943-4.984,9.345-14.579,9.345-16.822S345.479,234.662,345.479,234.662Z" transform="translate(-322.037 -205.641)" fill="#fff"/><path d="M359.382,276.608A13.99,13.99,0,0,0,361.4,278.8a1.492,1.492,0,0,0,.818.176l-1.022-1.84Z" transform="translate(-322.339 -205.979)" fill="#fb9f68"/><path d="M359.029,274.577l4.408,2.141a.785.785,0,0,1-.73.283,10.522,10.522,0,0,1-1.912-.526Z" transform="translate(-322.336 -205.963)" fill="#fb9f68"/><g transform="translate(28.289 49.728)"><path d="M361.412,281.623h34.872l10.49-26.086H371.956Z" transform="translate(-350.644 -255.537)" fill="#48bdd2"/><path d="M396.6,280.811H350.556v1.017H396.2Z" transform="translate(-350.556 -255.741)" fill="#36a1ac"/><path d="M387.665,268.672a1.208,1.208,0,0,0-1.184-1.66,2.382,2.382,0,0,0-2.137,1.66,1.208,1.208,0,0,0,1.184,1.66A2.378,2.378,0,0,0,387.665,268.672Z" transform="translate(-350.828 -255.63)" fill="#fff"/></g></g><g transform="translate(79 79.028)"><rect width="4.805" height="54.233" rx="2.402" transform="translate(0 62.788)" fill="#a2c9eb"/><g transform="translate(1.501 115.4)"><path d="M198.739,364.115h-.076a.805.805,0,0,1-.8-.824l1.22-52.889,3.595-.42L199.608,363.3A.871.871,0,0,1,198.739,364.115Z" transform="translate(-197.858 -309.982)" fill="#82b2e0"/></g><g transform="translate(56.249 115.4)"><path d="M256.986,364.115h.076a.805.805,0,0,0,.8-.824l-1.22-52.889-3.595-.42,3.065,53.313A.871.871,0,0,0,256.986,364.115Z" transform="translate(-253.052 -309.982)" fill="#a2c9eb"/></g><path d="M256.271,307.1H196.345v2.255a3.467,3.467,0,0,0,3.467,3.468h56.459a2.563,2.563,0,0,0,2.563-2.564v-.594A2.563,2.563,0,0,0,256.271,307.1Z" transform="translate(-196.345 -194.558)" fill="#a2c9eb"/><path d="M287,353.133s-.883,10.967,1.081,11.112c.261.02,9.959.02,9.959.02l12.381-.072s-.081-2.983-3.7-3.614-10.781-3.676-12.973-8.458C291.442,347.088,287,353.133,287,353.133Z" transform="translate(-197.075 -194.906)" fill="#06294e"/><path d="M211.915,292.533s.412,10.777,2.312,14.391h43.787s10.521,1.089,11.481,1.8c1.21.9-4.215,9.775,16.119,44.48l9.961-.254s-10.415-56.283-12.266-57.707c-2.767-2.132-35.161-9.547-40.707-9.709S211.915,292.533,211.915,292.533Z" transform="translate(-196.471 -194.384)" fill="#003878"/><path d="M236.527,228.067c3.38,2.093,3.57,6.262,3.57,6.262-8.242,2.132-20.233-7.018-20.233-7.018a20.217,20.217,0,0,0,7.271-11.4q.149-.594.27-1.215a24.725,24.725,0,0,0,.445-4.289l3.786,3.391,6.3,5.64a54.072,54.072,0,0,1-.93,6.366Q236.8,226.862,236.527,228.067Z" transform="translate(-196.535 -193.778)" fill="#fb9f68"/><path d="M241.081,271.429a12.3,12.3,0,0,0,.562,4.686,5.3,5.3,0,0,1,.124,1.534c-.45,5.087,1.363,5.732.8,7.374a40.146,40.146,0,0,1-5.484,2.477c-1.542.582-3.391,1.208-5.519,1.8l-.337.091a81.021,81.021,0,0,1-19.346,2.637c-4.674-.125-5.617-11.973-3.883-26.894,2.7-23.247,6.353-34.518,15.979-42.662.606-.513.2,1.232,3.432,2.792a15.14,15.14,0,0,0,9.394,1.156l2.2,2.257c4.372,6.906,4.831,15.1,4.459,21.934A200.805,200.805,0,0,1,241.081,271.429Z" transform="translate(-196.433 -193.874)" fill="#a2c9eb"/><path d="M237.992,219.47s.335-.352-.452,3.673c-6.973-2.017-9.245-5.57-10.176-7.924-.265-.666,2.592-1.02,4.333-1.389Z" transform="translate(-196.595 -193.805)" fill="#ea8349"/><path d="M241.218,219.355s-13.453,1.926-14.525-6.471-3.528-13.8,5.016-15.389,10.626,1.407,11.665,4.121S244.691,218.637,241.218,219.355Z" transform="translate(-196.581 -193.67)" fill="#fb9f68"/><g transform="translate(66.679 60.977)"><rect width="1.078" height="28.231" transform="translate(29.623 27.265) rotate(-162.63)" fill="#003878"/><rect width="29.625" height="1.772" transform="matrix(-1, -0.01, 0.01, -1, 29.623, 27.265)" fill="#003878"/></g><path d="M222.371,197.637c-.108-.126-.358-.228-.918-.264a2.269,2.269,0,0,1,1.046-.286,2.813,2.813,0,0,1,1.889-2.473,1.674,1.674,0,0,0-.822,1.2c1.562-1.579,4.892-2.712,14.081-1.913,12.111,1.052,8.056,8.78,6.48,9.692s-5.505-1.655-8.43-1.445-3.514,4.428-4.51,5-.6-.45-1.935-1.067-1.482,1.6-1.106,3.054-1.482,3.341-1.482,3.341l-1.848-2.022c-1.847-2.021-3.535-10.532-2.674-12.338C222.218,197.961,222.293,197.8,222.371,197.637Z" transform="translate(-196.548 -193.642)" fill="#1b2d53"/><path d="M242.681,285.242a40.145,40.145,0,0,1-5.484,2.477c-15.35-11.2-15.267-37.711-15.35-38.164l19.279,16.978.636,9.8a5.3,5.3,0,0,1,.124,1.533C241.436,282.954,243.249,283.6,242.681,285.242Z" transform="translate(-196.551 -194.094)" fill="#7daadb"/><g transform="translate(73.922 75.8)"><path d="M270.869,272.937a4.76,4.76,0,0,0,2.536-.412c1.3-.611,5.8-2.541,6.641-2.277s3.6,1.82,4.247,2.115a8.3,8.3,0,0,1,1.8,1.812c-.476.48-2.15-.622-2.9-.6s-6.27,3.037-7.912,3.1a31.645,31.645,0,0,1-4.2-.271Z" transform="translate(-270.869 -270.06)" fill="#fb9f68"/><path d="M280.96,273.2c.015.09,2.02,2.324,3.547,1.616l-1.674-1.655Z" transform="translate(-270.951 -270.084)" fill="#fb9f68"/><path d="M273.426,272.524a28.858,28.858,0,0,0,2.395-2.465s.358.165.373.467a4.006,4.006,0,0,1-.47,1.436Z" transform="translate(-270.89 -270.059)" fill="#fb9f68"/></g><path d="M237.63,232.651c-9.882-6.018-21.544,4.5-16.641,14.975,5.686,12.151,15.151,26.971,22.672,27.846,5.361.624,20.682,2.589,27.17,1.379,0,0,3.143.155,1.439-4.908,0,0-20.965-5.842-24.448-10.376-1.867-2.428-5.047-7.346-9.964-28.775C237.839,232.705,237.707,232.7,237.63,232.651Z" transform="translate(-196.535 -193.943)" fill="#a2c9eb"/></g><g transform="translate(133.339 166.886)"><g transform="translate(247.007 6.894)"><path d="M505.578,363.947h.106a1.113,1.113,0,0,0,1.112-1.138l-1.686-73.065-4.966-.579,4.234,73.65A1.2,1.2,0,0,0,505.578,363.947Z" transform="translate(-500.144 -289.165)" fill="#5e85c4"/></g><g transform="translate(7.08 6.894)"><path d="M259.481,363.947h-.106a1.111,1.111,0,0,1-1.111-1.138l1.685-73.065,4.966-.579-4.235,73.65A1.2,1.2,0,0,1,259.481,363.947Z" transform="translate(-258.264 -289.165)" fill="#5e85c4"/></g><rect width="260.107" height="8.817" rx="4.408" fill="#5e85c4"/></g><g transform="translate(37.187 7.522)"><rect width="4.232" height="15.57" transform="translate(35.264 46.653)" fill="#cbe2f5"/><path d="M193.446,167.023h-2.981a.531.531,0,0,1-.53-.529h0a.53.53,0,0,1,.53-.529h2.981a.53.53,0,0,1,.53.529h0A.531.531,0,0,1,193.446,167.023Z" transform="translate(-154.48 -121.913)" fill="#cbe2f5"/><rect width="4.232" height="27.796" transform="translate(27.968 34.427)" fill="#cbe2f5"/><path d="M185.994,155.089h-2.982a.53.53,0,0,1-.529-.529h0a.53.53,0,0,1,.529-.529h2.982a.53.53,0,0,1,.529.529h0A.53.53,0,0,1,185.994,155.089Z" transform="translate(-154.419 -121.816)" fill="#cbe2f5"/><rect width="4.232" height="47.151" transform="translate(20.976 15.071)" fill="#cbe2f5"/><path d="M178.945,135.442h-2.982a.53.53,0,0,1-.529-.529h0a.53.53,0,0,1,.529-.529h2.982a.53.53,0,0,1,.529.529h0A.53.53,0,0,1,178.945,135.442Z" transform="translate(-154.363 -121.658)" fill="#cbe2f5"/><rect width="4.232" height="38.596" transform="translate(13.8 23.626)" fill="#cbe2f5"/><path d="M171.71,144.323H168.73a.531.531,0,0,1-.53-.529h0a.531.531,0,0,1,.53-.53h2.981a.531.531,0,0,1,.53.53h0A.531.531,0,0,1,171.71,144.323Z" transform="translate(-154.304 -121.729)" fill="#cbe2f5"/><rect width="4.232" height="60.015" transform="translate(6.808 2.208)" fill="#cbe2f5"/><path d="M164.661,122.612h-2.981a.53.53,0,0,1-.529-.529h0a.53.53,0,0,1,.529-.53h2.981a.531.531,0,0,1,.53.53h0A.531.531,0,0,1,164.661,122.612Z" transform="translate(-154.247 -121.554)" fill="#cbe2f5"/><rect width="4.232" height="50.642" transform="translate(0 11.58)" fill="#cbe2f5"/><path d="M157.8,132.134h-2.982a.53.53,0,0,1-.529-.529h0a.53.53,0,0,1,.529-.529H157.8a.53.53,0,0,1,.529.529h0A.53.53,0,0,1,157.8,132.134Z" transform="translate(-154.192 -121.631)" fill="#cbe2f5"/></g><g transform="translate(307.103 140.8)"><path d="M471.667,282H436.8L426.3,255.917h34.818Z" transform="translate(-426.305 -255.917)" fill="#0c387b"/><path d="M436.469,281.191h46.049v1.016h-45.64Z" transform="translate(-426.387 -256.121)" fill="#0c387b"/><path d="M445.754,269.053a1.209,1.209,0,0,1,1.184-1.661,2.381,2.381,0,0,1,2.137,1.661,1.208,1.208,0,0,1-1.184,1.66A2.379,2.379,0,0,1,445.754,269.053Z" transform="translate(-426.461 -256.01)" fill="#fff"/></g><path d="M616.5,364.566v.252a.715.715,0,0,1-.682.736H133.747a.715.715,0,0,1-.683-.736v-.252a.714.714,0,0,1,.683-.735H615.816A.714.714,0,0,1,616.5,364.566Z" transform="translate(-116.834 -115.988)" fill="#1f2941"/></g><g transform="translate(386.595 115.093)"><g transform="translate(4.721)"><path d="M442.871,123.545l2.528-3.923-7.022-4.52-2.528,3.93-1.415-.912-1.764,2.736-1.462-.946-36.094,56.052,1.462.946-3.025,4.695,9.845,6.344,3.031-4.7,1.462.946,36.094-56.052-1.462-.946,1.757-2.736Z" transform="translate(-393.552 -115.102)" fill="#c8ddf3"/></g><path d="M442.871,123.545l2.528-3.923-7.022-4.52-2.528,3.93-1.415-.912-1.764,2.736-1.462-.946-36.094,56.052,1.462.946-3.025,4.695,9.845,6.344,3.031-4.7,1.462.946,36.094-56.052-1.462-.946,1.757-2.736Z" transform="translate(-388.83 -115.102)" fill="#c8ddf3"/><g transform="translate(0 45.859)"><path d="M425.543,206.414l-.221.034c4.795-4.433,7.746-9.443,8.805-15,2.972-15.551-10.756-29.554-11.313-30.118l-3.628,5.626c.114.114,10.844,11.059,8.511,23.265-1.456,7.619-7.981,14.151-19.388,19.435l-4.051-2.119.778-1.489-15.417-8.074-.825,1.569,7.981,4.178-3.756,7.169,15.237,7.981-2.36,7.163H394.029v4.849h49.514v-4.849H425.537V206.414Z" transform="translate(-388.792 -161.334)" fill="#c8ddf3"/></g><path d="M425.543,206.414l-.221.034c4.795-4.433,7.746-9.443,8.805-15,2.972-15.551-10.756-29.554-11.313-30.118l-3.628,5.626c.114.114,10.844,11.059,8.511,23.265-1.456,7.619-7.981,14.151-19.388,19.435l-4.051-2.119.778-1.489-15.417-8.074-.825,1.569,7.981,4.178-3.756,7.169,15.237,7.981-2.36,7.163H394.029v4.849h49.514v-4.849H425.537V206.414Z" transform="translate(-388.792 -115.475)" fill="#c8ddf3"/></g><path d="M555.487,165.444h-9.37v-9.37H535.676v9.37h-9.37v10.441h9.37v9.37h10.441v-9.37h9.37Z" transform="translate(-3.307 -0.34)" fill="#0f7588"/><path d="M582.377,203.418h-6.361v-6.361h-7.088v6.361h-6.361v7.088h6.361v6.361h7.088v-6.361h6.361Z" transform="translate(-3.6 -0.671)" fill="#004185"/></g></svg>